<svg width="16" height="15" viewBox="0 0 16 15" fill="none" xmlns="http://www.w3.org/2000/svg">
<path d="M6.97922 2.00151C6.74444 1.7787 6.74036 1.40889 6.96924 1.1824L7.73271 0.418933C7.95848 0.193163 8.32155 0.19453 8.54262 0.417988L15.2209 7.09285C15.4467 7.31862 15.4453 7.68169 15.2219 7.90277L8.54357 14.5811C8.3178 14.8068 7.95473 14.8055 7.73365 14.582L6.97017 13.8185C6.74359 13.5919 6.74799 13.2206 6.98015 12.9976L11.571 8.62394H1.07436C0.7556 8.62394 0.5 8.36834 0.5 8.04958V6.95042C0.5 6.63166 0.7556 6.37606 1.07436 6.37606H11.571L6.97922 2.00151Z" fill="#F9F9FF"/>
</svg>
