<svg width="1680" height="446" viewBox="0 0 1680 446" fill="none" xmlns="http://www.w3.org/2000/svg">
<path fill-rule="evenodd" clip-rule="evenodd" d="M1558 195.149C1561.28 192.358 1564.38 189.359 1567.28 186.173C1579.11 199.383 1596.28 207.694 1615.4 207.694C1651.08 207.694 1680 178.728 1680 142.997C1680 107.266 1651.08 78.3 1615.4 78.3C1605.44 78.3 1596.01 80.5558 1587.59 84.5848C1573.69 45.7679 1536.63 18 1493.09 18C1451.09 18 1415.11 43.8417 1400.15 80.5156C1394.79 79.0706 1389.14 78.3 1383.33 78.3C1360.88 78.3 1341.1 89.7678 1329.52 107.173C1321.77 100.9 1311.9 97.1437 1301.16 97.1437C1277.82 97.1437 1258.62 114.875 1256.25 137.62C1247.03 131.539 1235.98 128 1224.12 128C1199.65 128 1178.69 143.042 1169.97 164.39C1166.85 163.549 1163.56 163.1 1160.17 163.1C1149.27 163.1 1139.46 167.736 1132.58 175.145C1129.88 157.009 1114.24 143.1 1095.37 143.1C1089.57 143.1 1084.07 144.413 1079.16 146.758C1071.07 124.163 1049.48 108 1024.12 108C999.647 108 978.689 123.042 969.974 144.39C966.849 143.549 963.563 143.1 960.173 143.1C947.095 143.1 935.575 149.775 928.83 159.907C924.314 156.255 918.566 154.069 912.308 154.069C899.541 154.069 888.898 163.169 886.504 175.24C879.627 167.776 869.773 163.1 858.827 163.1C855.437 163.1 852.151 163.549 849.026 164.39C840.311 143.042 819.353 128 794.885 128C769.52 128 747.929 144.163 739.836 166.758C734.929 164.413 729.435 163.1 723.635 163.1C717.849 163.1 712.368 164.406 707.471 166.741C707.819 164.704 708 162.611 708 160.475C708 140.096 691.501 123.575 671.148 123.575C662.382 123.575 654.33 126.64 648.004 131.758C638.555 117.557 622.418 108.2 604.098 108.2C599.349 108.2 594.746 108.829 590.369 110.008C578.16 80.0848 548.803 59 514.527 59C482.164 59 454.187 77.796 440.888 105.08C432.301 92.2861 417.72 83.8688 401.177 83.8688C389.802 83.8688 379.353 87.8495 371.144 94.4969C358.882 76.0524 337.941 63.9 314.167 63.9C308.005 63.9 302.032 64.7166 296.351 66.2478C280.509 27.3846 242.412 0 197.932 0C151.824 0 112.575 29.4257 97.863 70.5601C88.9432 66.2905 78.9565 63.9 68.4127 63.9C30.6295 63.9 0 94.595 0 132.459C0 170.324 30.6295 201.019 68.4127 201.019C71.6665 201.019 74.8673 200.791 78 200.351V446H1558V195.149ZM1328.97 178C1328.98 177.998 1328.98 177.997 1328.98 177.995C1328.98 177.997 1328.98 177.998 1328.98 178H1328.97Z" fill="#F9F9FF"/>
</svg>
