<svg width="391" height="431" viewBox="0 0 391 431" fill="none" xmlns="http://www.w3.org/2000/svg">
<path fill-rule="evenodd" clip-rule="evenodd" d="M312.801 0C319.622 0 329.772 0.9973 335.262 2.49325C340.753 3.9892 348.739 6.9811 353.231 9.14192C357.557 11.3027 364.046 15.9568 367.873 19.4474C371.533 22.7717 376.858 28.9217 379.353 33.0771C382.015 37.2325 385.676 46.2083 387.506 53.0231C389.503 59.838 391 70.3097 391 76.2935C391 82.2773 389.835 91.253 388.504 96.2395C387.173 101.226 384.178 109.204 382.015 113.692C379.686 118.346 369.703 132.641 359.887 145.606C350.07 158.571 337.592 174.361 322.95 191.814L330.437 213.422C334.597 225.39 339.588 242.178 341.252 250.821C343.082 259.464 344.746 272.595 344.746 279.909C344.746 287.721 343.581 297.362 341.918 303.179C340.42 308.664 337.092 316.975 334.929 321.463C332.6 326.117 325.612 334.761 319.622 340.744C311.47 349.055 304.981 353.709 294.499 358.696C285.681 363.017 275.365 366.508 267.046 368.004C259.725 369.334 248.91 370.497 242.921 370.497C236.931 370.497 226.116 369.001 218.795 367.173C211.475 365.178 198.497 360.358 174.704 348.889L164.721 356.369C159.231 360.524 154.739 364.181 154.739 364.68C154.739 365.178 157.567 367.339 160.895 369.5C164.389 371.661 174.704 377.146 183.855 381.8C193.006 386.454 206.483 391.939 213.804 393.934C224.785 397.092 231.108 397.757 250.408 397.757C263.219 397.757 278.193 396.759 283.684 395.762C289.175 394.599 301.82 391.108 311.969 387.784C322.285 384.626 337.592 378.143 346.909 372.99C356.06 368.004 364.545 363.848 365.544 363.848C366.708 363.848 371.866 368.336 376.858 373.821C381.849 379.307 386.009 384.958 386.009 386.288C386.009 387.617 383.18 391.108 379.686 393.934C376.358 396.593 366.043 402.743 356.892 407.231C347.741 411.885 333.099 417.703 324.447 420.362C315.796 423.022 301.82 426.512 293.667 428.174C282.686 430.335 270.873 431 249.576 431C222.289 431 219.128 430.668 200.493 425.681C185.02 421.692 173.706 417.038 119.798 390.443L111.812 395.263C107.486 398.089 98.0025 403.076 90.6817 406.566C77.704 412.716 77.0385 412.882 58.2374 412.882C41.2665 412.882 38.1053 412.384 29.9526 408.561C24.9611 406.234 17.6404 401.413 13.6472 397.757C9.65406 394.266 4.829 387.95 2.9988 383.794C0.170322 377.644 -0.328821 373.821 0.170322 362.685C0.835848 350.717 1.50137 348.39 5.99367 341.908C9.48768 337.088 14.6455 332.932 21.7999 329.275C31.2836 324.289 34.2785 323.458 49.0864 322.793C58.7365 322.294 69.5513 322.627 74.8755 323.79C79.867 324.788 92.1792 329.774 102.328 334.594C120.63 343.57 120.63 343.57 125.622 340.744C128.45 339.082 134.606 334.096 148.582 321.463L143.924 309.828C141.428 303.512 137.934 292.541 136.27 285.727C134.44 278.912 133.109 267.609 133.109 260.794C133.109 253.979 134.274 243.009 135.605 236.693C136.936 230.376 140.596 219.739 143.757 213.422C146.919 207.106 153.408 197.299 158.233 191.98C163.224 186.661 170.878 179.68 175.536 176.688C183.689 171.203 183.855 171.203 187.183 174.195C189.013 176.024 194.171 182.838 207.149 201.122L196.999 210.597C191.342 215.749 184.854 223.229 182.358 227.052C180.029 231.041 176.867 238.853 175.37 244.505C173.04 253.314 172.874 256.971 174.538 267.775C175.536 274.923 177.366 283.067 180.528 291.046L207.981 262.955C223.121 247.663 244.252 225.057 255.066 212.924C265.715 200.956 274.533 190.152 274.533 189.321C274.533 188.49 271.705 181.841 268.044 174.694C264.55 167.713 257.895 153.252 253.236 142.78C248.744 132.309 243.087 117.349 240.591 109.537C238.262 101.725 235.766 89.0922 235.267 81.28C234.435 70.8083 234.934 64.4921 236.931 56.3475C238.428 50.3637 241.756 42.2191 244.085 38.0636C246.581 33.9082 252.737 26.4285 257.729 21.442C262.886 16.2892 270.374 10.6379 274.533 8.64327C278.693 6.64867 286.18 3.82299 291.171 2.49325C296.163 1.16352 305.979 0 312.801 0V0ZM289.008 56.5137C285.015 61.334 282.187 66.8191 281.022 72.1381C279.525 78.953 279.691 82.7759 281.854 92.9152C283.351 99.73 288.343 114.69 293.001 126.159C297.66 137.627 302.485 148.265 303.816 149.927C305.979 152.587 306.645 151.922 313.3 143.279C317.293 137.96 324.614 127.654 329.439 120.341C334.43 113.027 340.42 102.556 343.082 97.0706C346.909 88.926 347.741 84.7705 347.741 74.6313C347.907 63.3286 347.408 61.5002 342.749 55.0177C340.087 51.1948 335.096 46.8731 331.935 45.5434C328.773 44.2137 321.785 43.0501 316.461 43.0501C310.638 43.2164 304.648 44.3799 301.154 46.2083C297.993 47.8704 292.502 52.5245 289.008 56.5137V56.5137ZM218.962 305.673C212.806 311.656 207.981 316.975 207.981 317.64C207.981 318.471 211.974 320.798 216.799 323.125C221.457 325.286 229.61 327.613 234.602 328.112C239.593 328.777 248.578 328.444 254.567 327.447C260.557 326.45 269.375 323.624 274.367 321.131C279.192 318.471 286.18 313.319 289.674 309.329C293.334 305.506 297.66 299.19 299.49 295.201C301.487 290.879 302.818 284.563 302.818 278.579C302.818 273.427 301.82 263.62 300.489 256.971C299.158 250.489 296.995 241.845 295.497 237.856C294 234.033 292.169 230.875 291.504 230.875C290.672 230.875 276.53 245.336 259.892 262.789C243.42 280.408 224.951 299.689 218.962 305.673ZM37.4397 366.175C37.4397 369.334 38.7708 371.993 41.5993 374.154C43.9286 375.816 48.4209 377.811 51.5821 378.642C54.7434 379.307 60.234 379.307 63.5616 378.476C67.0556 377.811 73.2117 375.484 77.3712 373.323C81.6972 371.328 84.692 369.001 84.3593 368.004C84.0265 367.007 79.3678 364.181 73.8772 361.521C68.553 358.862 60.7331 356.369 56.5736 356.036C51.5821 355.593 47.1453 356.369 43.2631 358.363C38.6044 360.69 37.4397 362.353 37.4397 366.175V366.175Z" fill="#9A77CF"/>
</svg>
